# Blender 3.5.0
# www.blender.org
mtllib table.mtl
o top
v 0.750000 0.660000 -0.350000
v 0.750000 0.600000 -0.350000
v 0.750000 0.660000 0.350000
v 0.750000 0.600000 0.350000
v -0.750000 0.660000 -0.350000
v -0.750000 0.600000 -0.350000
v -0.750000 0.660000 0.350000
v -0.750000 0.600000 0.350000
vn -0.0000 1.0000 -0.0000
vn -0.0000 -0.0000 1.0000
vn -1.0000 -0.0000 -0.0000
vn -0.0000 -1.0000 -0.0000
vn 1.0000 -0.0000 -0.0000
vn -0.0000 -0.0000 -1.0000
vt 0.625000 0.500000
vt 0.375000 0.500000
vt 0.625000 0.750000
vt 0.375000 0.750000
vt 0.875000 0.500000
vt 0.625000 0.250000
vt 0.125000 0.500000
vt 0.375000 0.250000
vt 0.875000 0.750000
vt 0.625000 1.000000
vt 0.625000 0.000000
vt 0.375000 1.000000
vt 0.375000 0.000000
vt 0.125000 0.750000
s 0
usemtl Material
f 1/1/1 5/5/1 7/9/1 3/3/1
f 4/4/2 3/3/2 7/10/2 8/12/2
f 8/13/3 7/11/3 5/6/3 6/8/3
f 6/7/4 2/2/4 4/4/4 8/14/4
f 2/2/5 1/1/5 3/3/5 4/4/5
f 6/8/6 5/6/6 1/1/6 2/2/6
o rectangle
v -0.730000 0.540000 0.330000
v -0.730000 0.600000 0.330000
v -0.730000 0.540000 -0.330000
v -0.730000 0.600000 -0.330000
v 0.730000 0.540000 0.330000
v 0.730000 0.600000 0.330000
v 0.730000 0.540000 -0.330000
v 0.730000 0.600000 -0.330000
v 0.700000 0.540000 0.300000
v 0.700000 0.540000 -0.300000
v -0.700000 0.540000 0.300000
v -0.700000 0.540000 -0.300000
v -0.700000 0.600000 0.300000
v -0.700000 0.600000 -0.300000
v 0.700000 0.600000 0.300000
v 0.700000 0.600000 -0.300000
vn -1.0000 -0.0000 -0.0000
vn -0.0000 -0.0000 -1.0000
vn 1.0000 -0.0000 -0.0000
vn -0.0000 -0.0000 1.0000
vn -0.0000 -1.0000 -0.0000
vn -0.0000 1.0000 -0.0000
vt 0.375000 0.000000
vt 0.375000 1.000000
vt 0.125000 0.750000
vt 0.625000 0.000000
vt 0.625000 1.000000
vt 0.875000 0.750000
vt 0.375000 0.250000
vt 0.125000 0.500000
vt 0.625000 0.250000
vt 0.875000 0.500000
vt 0.375000 0.750000
vt 0.625000 0.750000
vt 0.375000 0.500000
vt 0.625000 0.500000
vt 0.369863 0.738636
vt 0.462500 0.750000
vt 0.369863 0.511364
vt 0.462500 0.500000
vt 0.130137 0.738636
vt 0.462500 0.000000
vt 0.462500 1.000000
vt 0.130137 0.511364
vt 0.462500 0.250000
vt 0.869863 0.738636
vt 0.537500 0.000000
vt 0.537500 1.000000
vt 0.869863 0.511364
vt 0.537500 0.250000
vt 0.630137 0.738636
vt 0.537500 0.750000
vt 0.630137 0.511364
vt 0.537500 0.500000
s 0
f 9/15/7 10/18/7 12/23/7 11/21/7
f 11/21/8 12/23/8 16/28/8 15/27/8
f 15/27/9 16/28/9 14/26/9 13/25/9
f 13/25/10 14/26/10 10/19/10 9/16/10
f 19/33/11 9/17/11 11/22/11 20/36/11
f 20/36/11 11/22/11 15/27/11 13/25/11 9/17/11 19/33/11 17/29/11 18/31/11
f 23/43/12 14/26/12 16/28/12 24/45/12
f 24/45/12 16/28/12 12/24/12 10/20/12 14/26/12 23/43/12 21/38/12 22/41/12
f 21/39/9 19/34/9 20/37/9 22/42/9
f 22/42/10 20/37/10 18/32/10 24/46/10
f 18/32/7 17/30/7 23/44/7 24/46/7
f 17/30/8 19/35/8 21/40/8 23/44/8
o Foot_1
v 0.700000 0.000000 0.330000
v 0.700000 0.600000 0.330000
v 0.700000 0.000000 0.300000
v 0.700000 0.600000 0.300000
v 0.730000 0.000000 0.330000
v 0.730000 0.600000 0.330000
v 0.730000 0.000000 0.300000
v 0.730000 0.600000 0.300000
vn -1.0000 -0.0000 -0.0000
vn -0.0000 -0.0000 -1.0000
vn 1.0000 -0.0000 -0.0000
vn -0.0000 -0.0000 1.0000
vn -0.0000 -1.0000 -0.0000
vn -0.0000 1.0000 -0.0000
vt 0.375000 0.000000
vt 0.375000 1.000000
vt 0.125000 0.750000
vt 0.625000 0.000000
vt 0.625000 1.000000
vt 0.875000 0.750000
vt 0.375000 0.250000
vt 0.125000 0.500000
vt 0.625000 0.250000
vt 0.875000 0.500000
vt 0.375000 0.750000
vt 0.625000 0.750000
vt 0.375000 0.500000
vt 0.625000 0.500000
s 0
f 25/47/13 26/50/13 28/55/13 27/53/13
f 27/53/14 28/55/14 32/60/14 31/59/14
f 31/59/15 32/60/15 30/58/15 29/57/15
f 29/57/16 30/58/16 26/51/16 25/48/16
f 27/54/17 31/59/17 29/57/17 25/49/17
f 32/60/18 28/56/18 26/52/18 30/58/18
o Foot_2
v -0.730000 0.000000 0.330000
v -0.730000 0.600000 0.330000
v -0.730000 0.000000 0.300000
v -0.730000 0.600000 0.300000
v -0.700000 0.000000 0.330000
v -0.700000 0.600000 0.330000
v -0.700000 0.000000 0.300000
v -0.700000 0.600000 0.300000
vn -1.0000 -0.0000 -0.0000
vn -0.0000 -0.0000 -1.0000
vn 1.0000 -0.0000 -0.0000
vn -0.0000 -0.0000 1.0000
vn -0.0000 -1.0000 -0.0000
vn -0.0000 1.0000 -0.0000
vt 0.375000 0.000000
vt 0.375000 1.000000
vt 0.125000 0.750000
vt 0.625000 0.000000
vt 0.625000 1.000000
vt 0.875000 0.750000
vt 0.375000 0.250000
vt 0.125000 0.500000
vt 0.625000 0.250000
vt 0.875000 0.500000
vt 0.375000 0.750000
vt 0.625000 0.750000
vt 0.375000 0.500000
vt 0.625000 0.500000
s 0
f 33/61/19 34/64/19 36/69/19 35/67/19
f 35/67/20 36/69/20 40/74/20 39/73/20
f 39/73/21 40/74/21 38/72/21 37/71/21
f 37/71/22 38/72/22 34/65/22 33/62/22
f 35/68/23 39/73/23 37/71/23 33/63/23
f 40/74/24 36/70/24 34/66/24 38/72/24
o Foot_4
v -0.730000 0.000000 -0.300000
v -0.730000 0.600000 -0.300000
v -0.730000 0.000000 -0.330000
v -0.730000 0.600000 -0.330000
v -0.700000 0.000000 -0.300000
v -0.700000 0.600000 -0.300000
v -0.700000 0.000000 -0.330000
v -0.700000 0.600000 -0.330000
vn -1.0000 -0.0000 -0.0000
vn -0.0000 -0.0000 -1.0000
vn 1.0000 -0.0000 -0.0000
vn -0.0000 -0.0000 1.0000
vn -0.0000 -1.0000 -0.0000
vn -0.0000 1.0000 -0.0000
vt 0.375000 0.000000
vt 0.375000 1.000000
vt 0.125000 0.750000
vt 0.625000 0.000000
vt 0.625000 1.000000
vt 0.875000 0.750000
vt 0.375000 0.250000
vt 0.125000 0.500000
vt 0.625000 0.250000
vt 0.875000 0.500000
vt 0.375000 0.750000
vt 0.625000 0.750000
vt 0.375000 0.500000
vt 0.625000 0.500000
s 0
f 41/75/25 42/78/25 44/83/25 43/81/25
f 43/81/26 44/83/26 48/88/26 47/87/26
f 47/87/27 48/88/27 46/86/27 45/85/27
f 45/85/28 46/86/28 42/79/28 41/76/28
f 43/82/29 47/87/29 45/85/29 41/77/29
f 48/88/30 44/84/30 42/80/30 46/86/30
o Foot_3
v 0.700000 0.000000 -0.300000
v 0.700000 0.600000 -0.300000
v 0.700000 0.000000 -0.330000
v 0.700000 0.600000 -0.330000
v 0.730000 0.000000 -0.300000
v 0.730000 0.600000 -0.300000
v 0.730000 0.000000 -0.330000
v 0.730000 0.600000 -0.330000
vn -1.0000 -0.0000 -0.0000
vn -0.0000 -0.0000 -1.0000
vn 1.0000 -0.0000 -0.0000
vn -0.0000 -0.0000 1.0000
vn -0.0000 -1.0000 -0.0000
vn -0.0000 1.0000 -0.0000
vt 0.375000 0.000000
vt 0.375000 1.000000
vt 0.125000 0.750000
vt 0.625000 0.000000
vt 0.625000 1.000000
vt 0.875000 0.750000
vt 0.375000 0.250000
vt 0.125000 0.500000
vt 0.625000 0.250000
vt 0.875000 0.500000
vt 0.375000 0.750000
vt 0.625000 0.750000
vt 0.375000 0.500000
vt 0.625000 0.500000
s 0
f 49/89/31 50/92/31 52/97/31 51/95/31
f 51/95/32 52/97/32 56/102/32 55/101/32
f 55/101/33 56/102/33 54/100/33 53/99/33
f 53/99/34 54/100/34 50/93/34 49/90/34
f 51/96/35 55/101/35 53/99/35 49/91/35
f 56/102/36 52/98/36 50/94/36 54/100/36
