# Blender 3.5.0
# www.blender.org
mtllib UltraVioletLamp.mtl
o Rectangle
v -0.750000 1.200000 0.500000
v -0.750000 1.400000 0.500000
v -0.750000 1.200000 -0.500000
v -0.750000 1.400000 -0.500000
v 0.750000 1.200000 0.500000
v 0.750000 1.400000 0.500000
v 0.750000 1.200000 -0.500000
v 0.750000 1.400000 -0.500000
vn -1.0000 -0.0000 -0.0000
vn -0.0000 -0.0000 -1.0000
vn 1.0000 -0.0000 -0.0000
vn -0.0000 -0.0000 1.0000
vn -0.0000 -1.0000 -0.0000
vn -0.0000 1.0000 -0.0000
vt 0.375000 0.000000
vt 0.375000 1.000000
vt 0.125000 0.750000
vt 0.625000 0.000000
vt 0.625000 1.000000
vt 0.875000 0.750000
vt 0.375000 0.250000
vt 0.125000 0.500000
vt 0.625000 0.250000
vt 0.875000 0.500000
vt 0.375000 0.750000
vt 0.625000 0.750000
vt 0.375000 0.500000
vt 0.625000 0.500000
s 0
usemtl SoftPlastic
f 1/1/1 2/4/1 4/9/1 3/7/1
f 3/7/2 4/9/2 8/14/2 7/13/2
f 7/13/3 8/14/3 6/12/3 5/11/3
f 5/11/4 6/12/4 2/5/4 1/2/4
f 3/8/5 7/13/5 5/11/5 1/3/5
f 8/14/6 4/10/6 2/6/6 6/12/6
o EyeHole
v -0.750000 1.400000 0.250000
v -0.675862 2.100000 0.250000
v -0.750000 1.400000 -0.250000
v -0.675862 2.100000 -0.250000
v 0.750000 1.400000 0.250000
v 0.673201 2.100000 0.250000
v 0.750000 1.400000 -0.250000
v 0.673201 2.100000 -0.250000
v 0.700000 1.400000 0.200000
v 0.700000 1.400000 -0.200000
v -0.700000 1.400000 0.200000
v -0.700000 1.400000 -0.200000
v -0.630805 2.100000 0.200000
v -0.630805 2.100000 -0.200000
v 0.628321 2.100000 0.200000
v 0.628321 2.100000 -0.200000
v 0.614653 2.100000 0.250000
v 0.600522 2.053416 -0.250000
v 0.600522 2.053416 -0.200000
v 0.614653 2.100000 0.200000
v 0.614653 2.100000 -0.250000
v 0.614653 2.100000 -0.200000
v 0.600522 2.053416 0.200000
v 0.600522 2.053416 0.250000
v 0.540455 1.941040 -0.250000
v 0.540455 1.941040 -0.200000
v 0.540455 1.941040 0.200000
v 0.540455 1.941040 0.250000
v 0.459619 1.842541 -0.250000
v 0.459619 1.842541 -0.200000
v 0.459619 1.842541 0.200000
v 0.459619 1.842541 0.250000
v 0.361121 1.761705 -0.250000
v 0.361121 1.761705 -0.200000
v 0.361121 1.761705 0.200000
v 0.361121 1.761705 0.250000
v 0.248744 1.701639 -0.250000
v 0.248744 1.701639 -0.200000
v 0.248744 1.701639 0.200000
v 0.248744 1.701639 0.250000
v 0.126809 1.664650 -0.250000
v 0.126809 1.664650 -0.200000
v 0.126809 1.664650 0.200000
v 0.126809 1.664650 0.250000
v 0.000000 1.652160 -0.250000
v 0.000000 1.652160 -0.200000
v 0.000000 1.652160 0.200000
v 0.000000 1.652160 0.250000
v -0.126809 1.664650 -0.250000
v -0.126809 1.664650 -0.200000
v -0.126809 1.664650 0.200000
v -0.126809 1.664650 0.250000
v -0.248744 1.701639 -0.250000
v -0.248744 1.701639 -0.200000
v -0.248744 1.701639 0.200000
v -0.248744 1.701639 0.250000
v -0.361121 1.761705 -0.250000
v -0.361121 1.761705 -0.200000
v -0.361121 1.761705 0.200000
v -0.361121 1.761705 0.250000
v -0.459619 1.842541 -0.250000
v -0.459619 1.842541 -0.200000
v -0.459619 1.842541 0.200000
v -0.459619 1.842541 0.250000
v -0.540455 1.941040 -0.250000
v -0.540455 1.941040 -0.200000
v -0.540455 1.941040 0.200000
v -0.540455 1.941040 0.250000
v -0.600522 2.053416 -0.250000
v -0.600522 2.053416 -0.200000
v -0.600522 2.053416 0.200000
v -0.600522 2.053416 0.250000
v -0.614653 2.100000 0.250000
v -0.614653 2.100000 0.200000
v -0.614653 2.100000 -0.200000
v -0.614653 2.100000 -0.250000
vn -0.9944 0.1053 -0.0000
vn 0.9940 0.1091 -0.0000
vn -0.0000 -1.0000 -0.0000
vn -0.0000 1.0000 -0.0000
vn 0.9951 -0.0984 -0.0000
vn -0.9948 -0.1019 -0.0000
vn -0.9569 0.2903 -0.0000
vn -0.8819 0.4714 -0.0000
vn -0.7730 0.6344 -0.0000
vn -0.6344 0.7730 -0.0000
vn -0.4714 0.8819 -0.0000
vn -0.2903 0.9569 -0.0000
vn -0.0980 0.9952 -0.0000
vn 0.0980 0.9952 -0.0000
vn 0.2903 0.9569 -0.0000
vn 0.4714 0.8819 -0.0000
vn 0.6344 0.7730 -0.0000
vn 0.7730 0.6344 -0.0000
vn 0.8819 0.4714 -0.0000
vn 0.9569 0.2903 -0.0000
vn -0.0000 -0.0000 -1.0000
vn -0.0000 -0.0000 1.0000
vt 0.375000 0.000000
vt 0.125000 0.750000
vt 0.375000 1.000000
vt 0.625000 0.000000
vt 0.625000 0.987644
vt 0.862644 0.750000
vt 0.125000 0.500000
vt 0.375000 0.250000
vt 0.625000 0.262356
vt 0.862644 0.500000
vt 0.375000 0.750000
vt 0.630670 0.757130
vt 0.375000 0.500000
vt 0.630670 0.492870
vt 0.366667 0.725000
vt 0.420455 0.750000
vt 0.366667 0.525000
vt 0.420455 0.500000
vt 0.133333 0.725000
vt 0.420455 0.000000
vt 0.420455 1.000000
vt 0.133333 0.525000
vt 0.420455 0.250000
vt 0.579545 0.000000
vt 0.855134 0.725000
vt 0.579545 0.987644
vt 0.855134 0.525000
vt 0.579545 0.262356
vt 0.645280 0.725000
vt 0.579545 0.762800
vt 0.645280 0.525000
vt 0.579545 0.487200
vt 0.699439 0.812500
vt 0.630424 0.767134
vt 0.640737 0.756821
vt 0.687500 0.687500
vt 0.613401 0.480125
vt 0.687500 0.700000
vt 0.568958 0.482236
vt 0.699439 0.800000
vt 0.647558 0.725000
vt 0.579545 0.765241
vt 0.699439 0.687500
vt 0.630424 0.482866
vt 0.640737 0.493179
vt 0.699439 0.700000
vt 0.647558 0.525000
vt 0.579545 0.484759
vt 0.687500 0.800000
vt 0.568958 0.767764
vt 0.687500 0.812500
vt 0.613401 0.769875
vt 0.656250 0.687500
vt 0.572211 0.469058
vt 0.656250 0.700000
vt 0.543418 0.471510
vt 0.656250 0.800000
vt 0.543418 0.778490
vt 0.656250 0.812500
vt 0.572211 0.780941
vt 0.625000 0.687500
vt 0.536074 0.454627
vt 0.625000 0.700000
vt 0.521032 0.457075
vt 0.625000 0.800000
vt 0.521032 0.792925
vt 0.625000 0.812500
vt 0.536074 0.795373
vt 0.593750 0.687500
vt 0.506416 0.437423
vt 0.593750 0.700000
vt 0.502660 0.439486
vt 0.593750 0.800000
vt 0.502660 0.810514
vt 0.593750 0.812500
vt 0.506416 0.812577
vt 0.562500 0.687500
vt 0.484380 0.418109
vt 0.562500 0.700000
vt 0.489009 0.419419
vt 0.562500 0.800000
vt 0.489009 0.830581
vt 0.562500 0.812500
vt 0.484380 0.831891
vt 0.531250 0.687500
vt 0.470779 0.397396
vt 0.531250 0.700000
vt 0.480602 0.397644
vt 0.531250 0.800000
vt 0.480602 0.852356
vt 0.531250 0.812500
vt 0.470779 0.852604
vt 0.500000 0.687500
vt 0.466080 0.376023
vt 0.500000 0.700000
vt 0.477764 0.375000
vt 0.500000 0.800000
vt 0.477764 0.875000
vt 0.500000 0.812500
vt 0.466080 0.873977
vt 0.468750 0.687500
vt 0.470404 0.354752
vt 0.468750 0.700000
vt 0.480602 0.352356
vt 0.468750 0.800000
vt 0.480602 0.897644
vt 0.468750 0.812500
vt 0.470404 0.895248
vt 0.437500 0.687500
vt 0.483523 0.334338
vt 0.437500 0.700000
vt 0.489009 0.330581
vt 0.437500 0.800000
vt 0.489009 0.919419
vt 0.437500 0.812500
vt 0.483523 0.915662
vt 0.406250 0.687500
vt 0.504879 0.315512
vt 0.406250 0.700000
vt 0.502660 0.310514
vt 0.406250 0.800000
vt 0.502660 0.939486
vt 0.406250 0.812500
vt 0.504879 0.934488
vt 0.375000 0.687500
vt 0.533617 0.298963
vt 0.375000 0.700000
vt 0.521032 0.292925
vt 0.375000 0.800000
vt 0.521032 0.957075
vt 0.375000 0.812500
vt 0.533617 0.951037
vt 0.343750 0.687500
vt 0.568635 0.285331
vt 0.343750 0.700000
vt 0.543418 0.278490
vt 0.343750 0.800000
vt 0.543418 0.971510
vt 0.343750 0.812500
vt 0.568635 0.964669
vt 0.312500 0.687500
vt 0.608627 0.275177
vt 0.312500 0.700000
vt 0.568958 0.267764
vt 0.312500 0.800000
vt 0.568958 0.982236
vt 0.312500 0.812500
vt 0.608627 0.974823
vt 0.300561 0.812500
vt 0.625257 0.977185
vt 0.852119 0.750324
vt 0.300561 0.800000
vt 0.852442 0.725000
vt 0.579545 0.984759
vt 0.300561 0.700000
vt 0.852442 0.525000
vt 0.579545 0.265241
vt 0.300561 0.687500
vt 0.625257 0.272815
vt 0.852119 0.499676
s 0
usemtl SoftPlastic
f 9/15/7 10/18/7 12/23/7 11/22/7
f 15/27/8 16/28/8 14/26/8 13/25/8
f 19/33/9 9/16/9 11/21/9 20/36/9
f 20/36/9 11/21/9 15/27/9 13/25/9 9/16/9 19/33/9 17/29/9 18/31/9
f 23/43/10 14/26/10 16/28/10 24/45/10
f 21/38/11 19/34/11 20/37/11 22/42/11
f 18/32/12 17/30/12 23/44/12 24/46/12
f 25/47/13 28/54/13 31/63/13 32/65/13
f 29/57/13 26/50/13 27/52/13 30/60/13
f 27/52/14 26/50/14 33/67/14 34/69/14
f 32/65/14 31/63/14 35/71/14 36/73/14
f 34/69/15 33/67/15 37/75/15 38/77/15
f 36/73/15 35/71/15 39/79/15 40/81/15
f 38/77/16 37/75/16 41/83/16 42/85/16
f 40/81/16 39/79/16 43/87/16 44/89/16
f 42/85/17 41/83/17 45/91/17 46/93/17
f 44/89/17 43/87/17 47/95/17 48/97/17
f 46/93/18 45/91/18 49/99/18 50/101/18
f 51/103/18 52/105/18 48/97/18 47/95/18
f 50/101/19 49/99/19 53/107/19 54/109/19
f 52/105/19 51/103/19 55/111/19 56/113/19
f 54/109/20 53/107/20 57/115/20 58/117/20
f 56/113/20 55/111/20 59/119/20 60/121/20
f 58/117/21 57/115/21 61/123/21 62/125/21
f 60/121/21 59/119/21 63/127/21 64/129/21
f 62/125/22 61/123/22 65/131/22 66/133/22
f 64/129/22 63/127/22 67/135/22 68/137/22
f 66/133/23 65/131/23 69/139/23 70/141/23
f 68/137/23 67/135/23 71/143/23 72/145/23
f 73/147/24 74/149/24 70/141/24 69/139/24
f 75/151/24 76/153/24 72/145/24 71/143/24
f 77/155/25 78/157/25 74/149/25 73/147/25
f 79/159/25 80/161/25 76/153/25 75/151/25
f 82/166/26 81/163/26 80/161/26 79/159/26
f 84/172/26 83/169/26 78/157/26 77/155/26
f 29/58/27 16/28/27 15/27/27 11/22/27 12/23/27 84/173/27 77/156/27 73/148/27 69/140/27 65/132/27 61/124/27 57/116/27 53/108/27 49/100/27 45/92/27 41/84/27 37/76/27 33/68/27 26/51/27
f 81/164/28 10/19/28 9/17/28 13/25/28 14/26/28 25/48/28 32/66/28 36/74/28 40/82/28 44/90/28 48/98/28 52/106/28 56/114/28 60/122/28 64/130/28 68/138/28 72/146/28 76/154/28 80/162/28
f 30/61/10 24/45/10 16/28/10 29/59/10
f 25/49/10 14/26/10 23/43/10 28/55/10
f 21/39/10 22/41/10 83/170/10 84/174/10 12/24/10 10/20/10 81/165/10 82/167/10
f 83/171/28 22/42/28 20/37/28 18/32/28 24/46/28 30/62/28 27/53/28 34/70/28 38/78/28 42/86/28 46/94/28 50/102/28 54/110/28 58/118/28 62/126/28 66/134/28 70/142/28 74/150/28 78/158/28
f 23/44/27 17/30/27 19/35/27 21/40/27 82/168/27 79/160/27 75/152/27 71/144/27 67/136/27 63/128/27 59/120/27 55/112/27 51/104/27 47/96/27 43/88/27 39/80/27 35/72/27 31/64/27 28/56/27
o Under
v 1.500000 0.700000 -1.000000
v 1.500000 -0.700000 -0.789474
v 1.500000 0.700000 1.000000
v 1.500000 -0.700000 0.813105
v -1.500000 0.700000 -1.000000
v -1.500000 -0.700000 -0.789474
v -1.500000 0.700000 1.000000
v -1.500000 -0.700000 0.813105
v -0.750000 -0.500000 -0.603687
v -0.750000 0.500000 -0.603687
v 0.750000 -0.500000 -0.603687
v 0.750000 0.500000 -0.603687
v 0.750000 0.500000 -0.969925
v -0.750000 0.500000 -0.969925
v -0.750000 -0.500000 -0.819549
v 0.750000 -0.500000 -0.819549
vn -0.0000 1.0000 -0.0000
vn -0.0000 -0.1323 0.9912
vn -1.0000 -0.0000 -0.0000
vn -0.0000 -1.0000 -0.0000
vn 1.0000 -0.0000 -0.0000
vn -0.0000 -0.1487 -0.9889
vn -0.0000 -0.0000 -1.0000
vt 0.625000 0.500000
vt 0.375000 0.526316
vt 0.625000 0.750000
vt 0.375000 0.726638
vt 0.875000 0.500000
vt 0.625000 0.250000
vt 0.125000 0.526316
vt 0.375000 0.223684
vt 0.875000 0.750000
vt 0.625000 1.000000
vt 0.625000 0.000000
vt 0.375000 1.000000
vt 0.375000 0.023362
vt 0.125000 0.726638
vt 0.375000 0.000000
vt 0.375000 1.000000
vt 0.125000 0.750000
vt 0.625000 0.000000
vt 0.625000 1.000000
vt 0.875000 0.750000
vt 0.375000 0.750000
vt 0.625000 0.750000
vt 0.589286 0.438807
vt 0.625000 0.658440
vt 0.589286 0.311193
vt 0.625000 0.091560
vt 0.875000 0.658440
vt 0.410714 0.300649
vt 0.375000 0.053966
vt 0.125000 0.696034
vt 0.410714 0.449351
vt 0.375000 0.696034
s 0
usemtl HardPlastic
f 85/175/29 89/179/29 91/183/29 87/177/29
f 88/178/30 87/177/30 91/184/30 92/186/30
f 92/187/31 91/185/31 89/180/31 90/182/31
f 90/181/32 86/176/32 88/178/32 92/188/32
f 86/176/33 85/175/33 87/177/33 88/178/33
f 90/182/34 89/180/34 85/175/34 86/176/34 100/205/34 97/197/34 98/199/34 99/202/34
f 86/176/34 90/182/34 99/202/34 100/205/34
f 98/200/33 94/192/33 93/189/33 99/203/33
f 100/206/31 95/195/31 96/196/31 97/198/31
f 95/195/35 93/190/35 94/193/35 96/196/35
f 99/204/29 93/191/29 95/195/29 100/206/29
f 96/196/32 94/194/32 98/201/32 97/198/32
o Upper
v -1.500000 0.700000 1.000000
v -1.500000 1.200000 0.588272
v -1.500000 0.700000 -1.000000
v -1.500000 1.200000 -0.670340
v 1.500000 0.700000 1.000000
v 1.500000 1.200000 0.588272
v 1.500000 0.700000 -1.000000
v 1.500000 1.200000 -0.670340
vn -1.0000 -0.0000 -0.0000
vn -0.0000 0.5504 -0.8349
vn 1.0000 -0.0000 -0.0000
vn -0.0000 0.6357 0.7720
vn -0.0000 -1.0000 -0.0000
vn -0.0000 1.0000 -0.0000
vt 0.375000 0.000000
vt 0.375000 1.000000
vt 0.125000 0.750000
vt 0.625000 0.051466
vt 0.625000 1.000000
vt 0.875000 0.698534
vt 0.375000 0.250000
vt 0.125000 0.500000
vt 0.625000 0.208793
vt 0.875000 0.541207
vt 0.375000 0.750000
vt 0.625000 0.698534
vt 0.375000 0.500000
vt 0.625000 0.541207
s 0
usemtl HardPlastic
f 101/207/36 102/210/36 104/215/36 103/213/36
f 103/213/37 104/215/37 108/220/37 107/219/37
f 107/219/38 108/220/38 106/218/38 105/217/38
f 105/217/39 106/218/39 102/211/39 101/208/39
f 103/214/40 107/219/40 105/217/40 101/209/40
f 108/220/41 104/216/41 102/212/41 106/218/41
